{"title":"Sex and the City 2 (2010) DVDRip XviD-MAX","uid":5722783,"size":1479142031,"categoryP":"video","categoryS":"movies","magnet":"?xt=urn:btih:bb5d6d7798bfb15d1b9b326b9a90380f64d6f24f&amp;dn=Sex+and+the+City+2+%282010%29+DVDRip+XviD-MAX&amp;tr=udp%3A%2F%2Ftracker.openbittorrent.com%3A80&amp;tr=udp%3A%2F%2Fopen.demonii.com%3A1337&amp;tr=udp%3A%2F%2Ftracker.coppersurfer.tk%3A6969&amp;tr=udp%3A%2F%2Fexodus.desync.com%3A6969","seeders":25,"leechers":6,"uploader":"extremezone","files":7,"time":1280343100,"description":"Sex and the City 2 (2010) DVDRip XviD-MAX\n\nFormat                           : AVI\nFormat/Info                      : Audio Video Interleave\nFormat profile                   : OpenDML\nFile size                        : 1.37 GiB\nDuration                         : 2h 20mn\nOverall bit rate                 : 1 390 Kbps\nWriting application              : VirtualDubMod 1.5.10.2 (build 2542/release)\nWriting library                  : VirtualDubMod build 2542/release\nOriginal source form             : MAX TORRENTZ\nCopyright                        : SIGISMUNT\n\nVideo\nID                               : 0\nFormat                           : MPEG-4 Visual\nFormat profile                   : E-mail\nFormat settings, BVOP            : Yes\nFormat settings, QPel            : No\nFormat settings, GMC             : No warppoints\nFormat settings, Matrix          : Default (H.263)\nMuxing mode                      : Packed bitstream\nCodec ID                         : XVID\nCodec ID/Hint                    : XviD\nDuration                         : 2h 20mn\nBit rate                         : 1 193 Kbps\nWidth                            : 720 pixels\nHeight                           : 288 pixels\nDisplay aspect ratio             : 2.500\nFrame rate                       : 25.000 fps\nResolution                       : 24 bits\nColorimetry                      : 4:2:0\nScan type                        : Progressive\nBits/(Pixel*Frame)               : 0.230\nStream size                      : 1.17 GiB (86%)\nWriting library                  : XviD 1.2.1 (UTC 2008-12-04)\n\nAudio\nID                               : 1\nFormat                           : AC-3\nFormat/Info                      : Audio Coding 3\nCodec ID                         : 2000\nDuration                         : 2h 20mn\nBit rate mode                    : Constant\nBit rate                         : 192 Kbps\nChannel(s)                       : 2 channels\nChannel positions                : L R\nSampling rate                    : 48.0 KHz\nStream size                      : 193 MiB (14%)\nAlignment                        : Aligned on interleaves\nInterleave, duration             : 64 ms (1.60 video frames)\nInterleave, preload duration     : 192 ms\n\nSource: KiNGDOM (perfect resynced-check included sample)\n &lt;a href=&quot;\nhttp://www.imdb.com/title/tt1261945/&quot; rel=&quot;nofollow&quot; target=&quot;_NEW&quot;&gt;\nhttp://www.imdb.com/title/tt1261945/&lt;/a&gt;\n\nScreens:\n &lt;a href=&quot;\nhttp://www.postimg.com/image/19000/18595.jpg&quot; rel=&quot;nofollow&quot; target=&quot;_NEW&quot;&gt;\nhttp://www.postimg.com/image/19000/18595.jpg&lt;/a&gt;\n &lt;a href=&quot;\nhttp://www.postimg.com/image/19000/18596.jpg&quot; rel=&quot;nofollow&quot; target=&quot;_NEW&quot;&gt;\nhttp://www.postimg.com/image/19000/18596.jpg&lt;/a&gt;\n &lt;a href=&quot;\nhttp://www.postimg.com/image/19000/18597.jpg&quot; rel=&quot;nofollow&quot; target=&quot;_NEW&quot;&gt;\nhttp://www.postimg.com/image/19000/18597.jpg&lt;/a&gt;\n &lt;a href=&quot;\nhttp://www.postimg.com/image/19000/18598.jpg&quot; rel=&quot;nofollow&quot; target=&quot;_NEW&quot;&gt;\nhttp://www.postimg.com/image/19000/18598.jpg&lt;/a&gt;\n\nScreenCaps:\n &lt;a href=&quot;\nhttp://www.postimg.com/image/19000/18599.jpg&quot; rel=&quot;nofollow&quot; target=&quot;_NEW&quot;&gt;\nhttp://www.postimg.com/image/19000/18599.jpg&lt;/a&gt;\n\nSex and the City 2 (2010) DVDRip XviD-MAX Torrent Free Download\n &lt;a href=&quot;\nhttp://thepiratebay.se/user/extremezone/0/7&quot; rel=&quot;nofollow&quot; target=&quot;_NEW&quot;&gt;\nhttp://thepiratebay.se/user/extremezone/0/7&lt;/a&gt;\n\nHow To Get Your Maxspeed (uTorrent)\n\nTorrent Client - Preferences - Bandwidth - Number of connections - Set aprox. 500 for each \nTorrent Client - Preferences - BiTorrent - Protocol Encryption - Forced\nBandwidth Allocation - High (Set download/upload limit - Unlimited)\nStop Other Active Torrents - Start downloading and wait for connections\nEnjoy and Seed for at least 1:1 ratio. Don't forget to say thanks/leave reviews.\nAlso please spread the link where you found this torrent to your friends.\nDon't trust IMDb robot or bad ratings,always watch some trailers first.\nIgnore stupid comments and fake/mislabeled/CAM/TS/RAR uploads.\nIf you need translation subs visit some subtitles sites.\nRecommended movie player VLC PLAYER.","torrent":{"xt":"urn:btih:bb5d6d7798bfb15d1b9b326b9a90380f64d6f24f","amp;dn":"Sex+and+the+City+2+%282010%29+DVDRip+XviD-MAX","amp;tr":["udp%3A%2F%2Ftracker.openbittorrent.com%3A80","udp%3A%2F%2Fopen.demonii.com%3A1337","udp%3A%2F%2Ftracker.coppersurfer.tk%3A6969","udp%3A%2F%2Fexodus.desync.com%3A6969"],"infoHash":"bb5d6d7798bfb15d1b9b326b9a90380f64d6f24f","infoHashBuffer":{"type":"Buffer","data":[187,93,109,119,152,191,177,93,27,155,50,107,154,144,56,15,100,214,242,79]},"announce":[],"urlList":[]}}